<svg width="45" height="28" viewBox="0 0 45 28" fill="none" xmlns="http://www.w3.org/2000/svg">
<path fill-rule="evenodd" clip-rule="evenodd" d="M16.6919 0.687719C16.5544 0.556725 16.3743 0.491228 16.1516 0.491228H8.74386C8.52117 0.491228 8.33778 0.556725 8.19368 0.687719C8.04959 0.818714 7.97754 1.00866 7.97754 1.25754V2.53474C7.97754 2.73123 7.96117 2.9048 7.92842 3.05544C7.89567 3.20608 7.84 3.43205 7.7614 3.73333L2.25965 25.0723C2.16795 25.4129 2.05661 25.6618 1.92561 25.8189C1.79462 25.9761 1.60468 26.1006 1.35579 26.1923L0.491228 26.4674C0.320936 26.546 0.196491 26.654 0.117895 26.7916C0.0392983 26.9291 0 27.0765 0 27.2337C0 27.4695 0.0785965 27.6561 0.235789 27.7937C0.392982 27.9312 0.628772 28 0.943158 28H12.32C12.6475 28 12.8898 27.9312 13.047 27.7937C13.2042 27.6561 13.2828 27.4695 13.2828 27.2337C13.2828 26.88 13.106 26.6442 12.7523 26.5263L11.7305 26.2905C11.4685 26.2119 11.3048 26.0515 11.2393 25.8091L11.219 25.7147C11.1818 25.4862 11.2147 25.2 11.3179 24.8561L15.8807 6.67439L19.7775 20.3411L18.5488 25.0723C18.4309 25.4915 18.3228 25.7731 18.2246 25.9172C18.1263 26.0613 17.9855 26.1661 17.8021 26.2316L16.9768 26.5263C16.7804 26.6049 16.6395 26.6999 16.5544 26.8112C16.4692 26.9226 16.4267 27.0568 16.4267 27.214C16.4267 27.4629 16.5085 27.6561 16.6723 27.7937C16.836 27.9312 17.0751 28 17.3895 28H28.5305C28.858 28 29.1004 27.9312 29.2575 27.7937C29.4147 27.6561 29.4933 27.4629 29.4933 27.214C29.4933 27.0437 29.4442 26.8964 29.346 26.7719C29.2477 26.6475 29.0938 26.546 28.8842 26.4674L28.0196 26.2316C27.7708 26.153 27.6136 26.0122 27.5481 25.8091L27.5294 25.7367C27.488 25.531 27.5139 25.2244 27.607 24.8168L32.1523 6.70456L36.0365 23.186C36.2068 23.9064 36.1577 24.5352 35.8891 25.0723C35.6206 25.6094 35.0933 26.022 34.3074 26.3102L33.8751 26.4674C33.6917 26.5591 33.5574 26.6606 33.4723 26.7719C33.3871 26.8833 33.3446 27.0306 33.3446 27.214C33.3446 27.4498 33.4264 27.6398 33.5902 27.7839C33.7539 27.928 33.9995 28 34.327 28H40.5754C40.9029 28 41.1485 27.928 41.3123 27.7839C41.476 27.6398 41.5579 27.4498 41.5579 27.214C41.5579 27.0306 41.5088 26.8833 41.4105 26.7719C41.3123 26.6606 41.1453 26.546 40.9095 26.4281L40.4379 26.2119C39.8615 25.963 39.3506 25.5733 38.9053 25.0428C38.4599 24.5123 38.1324 23.8082 37.9228 22.9305L33.5607 4.04772C33.469 3.70713 33.4068 3.43532 33.374 3.23228C33.3413 3.02924 33.3249 2.79672 33.3249 2.53474V1.25754C33.3249 1.00866 33.2529 0.818714 33.1088 0.687719C32.9647 0.556725 32.7878 0.491228 32.5782 0.491228H25.0723C24.8496 0.491228 24.6695 0.556725 24.5319 0.687719C24.3944 0.818714 24.3256 1.00866 24.3256 1.25754V2.53474C24.3256 2.71813 24.3092 2.88515 24.2765 3.03579L24.2607 3.10536C24.2254 3.25454 24.1684 3.46386 24.0898 3.73333L20.706 16.7649L17.134 4.04772C17.0685 3.82503 17.0129 3.59579 16.967 3.36C16.9212 3.12421 16.8982 2.84912 16.8982 2.53474V1.25754C16.8982 1.00866 16.8295 0.818714 16.6919 0.687719ZM42.8253 0.609123C42.1637 0.203041 41.4138 0 40.5754 0C39.7633 0 39.0264 0.203041 38.3649 0.609123C37.7034 1.0152 37.1794 1.56211 36.793 2.24982C36.4066 2.93754 36.2133 3.68093 36.2133 4.48C36.2133 5.29216 36.4066 6.03228 36.793 6.70035C37.1794 7.36842 37.7034 7.90222 38.3649 8.30175C39.0264 8.70129 39.7633 8.90105 40.5754 8.90105C41.4138 8.90105 42.1637 8.70129 42.8253 8.30175C43.4868 7.90222 44.0108 7.36842 44.3972 6.70035C44.7836 6.03228 44.9768 5.29216 44.9768 4.48C44.9768 3.68093 44.7836 2.93754 44.3972 2.24982C44.0108 1.56211 43.4868 1.0152 42.8253 0.609123Z" fill="#00001A"/>
</svg>
